<?xml version="1.0" encoding="UTF-8"?>
<!DOCTYPE svg PUBLIC "-//W3C//DTD SVG 1.1//EN" "http://www.w3.org/Graphics/SVG/1.1/DTD/svg11.dtd">
<!-- Creator: CorelDRAW 2021 (64-Bit) -->
<svg xmlns="http://www.w3.org/2000/svg" xml:space="preserve" width="150" height="20.8068mm" version="1.1" style="shape-rendering:geometricPrecision; text-rendering:geometricPrecision; image-rendering:optimizeQuality; fill-rule:evenodd; clip-rule:evenodd"
viewBox="0 0 511.16 275.02"
 xmlns:xlink="http://www.w3.org/1999/xlink"
 xmlns:xodm="http://www.corel.com/coreldraw/odm/2003">
 <defs>
  <style type="text/css">
   <![CDATA[
    .fil0 {fill:#454411;fill-rule:nonzero}
    .fil1 {fill:#F7941D;fill-rule:nonzero}
   ]]>
  </style>
 </defs>
 <g id="Слой_x0020_1">
  <metadata id="CorelCorpID_0Corel-Layer"/>
  <path class="fil0" d="M42.06 214.89c-3.62,0 -7.12,0.99 -10.49,2.96 -3.35,1.95 -5.91,4.88 -7.67,8.79l-21.84 48.38 -2.06 0 58.16 -128.25 60.58 128.25c-7.17,0 -14.08,-1.3 -20.72,-3.9 -6.61,-2.62 -12.5,-6.37 -17.67,-11.21 -5.18,-4.84 -9.3,-10.52 -12.38,-17.04l-7.71 -16.55c-1.77,-3.79 -4.34,-6.65 -7.71,-8.57 -3.35,-1.91 -6.85,-2.87 -10.49,-2.87zm0 0z"/>
  <path class="fil0" d="M185.31 184.66c-6.55,0 -12,1.24 -16.32,3.72 -4.34,2.46 -7.75,5.85 -10.22,10.18 -2.46,4.34 -4.2,9.33 -5.25,14.98 -1.02,5.65 -1.52,11.65 -1.52,17.98l0 43.5 -3.63 0c-4.93,0 -9.48,-1.21 -13.63,-3.63 -4.16,-2.42 -7.44,-5.71 -9.87,-9.87 -2.42,-4.15 -3.63,-8.7 -3.63,-13.63l0 -63.23 3.63 0c5.05,0 9.62,1.21 13.72,3.63 4.09,2.42 7.35,5.7 9.78,9.82 2.42,4.1 3.63,8.65 3.63,13.68 1.22,-5.58 3.14,-10.56 5.74,-14.93 2.62,-4.39 6.2,-7.83 10.72,-10.31 4.51,-2.48 10.13,-3.72 16.86,-3.72l0 1.84zm0 0z"/>
  <path class="fil0" d="M230.2 181.03c7.91,0 14.9,1.37 20.94,4.08 6.06,2.69 10.81,6.91 14.22,12.65 3.41,5.72 5.07,13.05 4.98,22.02l0 55.24c-5.5,0 -10.53,-1.35 -15.07,-4.04 -4.52,-2.71 -8.14,-6.37 -10.85,-10.94 -2.69,-4.57 -4.04,-9.61 -4.04,-15.11l0 -2.65c-1.29,7.75 -3.62,14.04 -7,18.88 -3.35,4.84 -7.49,8.37 -12.42,10.58 -4.93,2.19 -10.44,3.27 -16.5,3.27 -5.15,0 -9.35,-0.95 -12.6,-2.87 -3.26,-1.91 -5.64,-4.41 -7.13,-7.49 -1.5,-3.07 -2.24,-6.24 -2.24,-9.51 0,-6.24 2.3,-11.59 6.91,-16.05 4.63,-4.48 11.23,-8.13 19.82,-10.94 8.58,-2.8 18.74,-4.72 30.49,-5.74l0 -12.15c0,-8.67 -1.52,-15.03 -4.57,-19.1 -3.03,-4.06 -8.03,-6.1 -15.02,-6.1 -5.95,0 -11.33,1.55 -16.14,4.62 -4.82,3.08 -8.43,7.57 -10.85,13.45l-1.97 0c2.8,-7.2 7.51,-12.69 14.12,-16.46 6.64,-3.77 14.94,-5.65 24.93,-5.65zm-16.95 68.11c0,4.28 0.92,7.49 2.78,9.64 1.88,2.15 4.36,3.23 7.44,3.23 2.33,0 4.75,-1.01 7.26,-3.05 2.51,-2.06 4.63,-5.56 6.37,-10.49 1.73,-4.96 2.6,-11.77 2.6,-20.45l0 -4.21c-7.75,1.23 -14.1,3.99 -19.06,8.3 -4.93,4.28 -7.4,9.95 -7.4,17.04zm0 0z"/>
  <path class="fil0" d="M379.28 227.62c0,15.19 -3.32,26.89 -9.95,35.11 -6.61,8.2 -15.5,12.29 -26.68,12.29 -8.5,0 -15.56,-2.66 -21.21,-7.98 -5.65,-5.31 -9.45,-12.96 -11.39,-22.91l0 30.9c-5.5,0 -10.57,-1.35 -15.2,-4.04 -4.61,-2.71 -8.27,-6.38 -10.99,-10.99 -2.69,-4.63 -4.04,-9.7 -4.04,-15.2l0 -98.02c5.67,0 10.85,1.38 15.52,4.13 4.66,2.76 8.36,6.43 11.12,11.03 2.75,4.61 4.13,9.76 4.13,15.47l0 32.02c2.24,-9.24 6.15,-16.28 11.75,-21.12 5.62,-4.84 12.48,-7.26 20.58,-7.26 7.47,0 13.9,1.84 19.28,5.52 5.4,3.68 9.61,8.97 12.6,15.87 2.98,6.91 4.48,15.31 4.48,25.2zm-68.7 5.69c0.47,6.91 1.64,12.96 3.5,18.16 1.88,5.18 4.19,9.18 6.95,12.02 2.75,2.85 5.62,4.26 8.61,4.26 3.43,0 6.41,-1.67 8.92,-5.02 2.51,-3.37 4.48,-8.07 5.92,-14.08 1.46,-6.01 2.2,-13.02 2.2,-21.03 0,-7.95 -0.74,-14.85 -2.2,-20.72 -1.44,-5.89 -3.41,-10.46 -5.92,-13.72 -2.51,-3.25 -5.49,-4.89 -8.92,-4.89 -2.99,0 -5.86,1.41 -8.61,4.22 -2.76,2.78 -5.07,6.7 -6.95,11.75 -1.86,5.02 -3.03,10.94 -3.5,17.76l0 11.3zm0 0z"/>
  <path class="fil0" d="M417.01 153.59c0,4.48 -1.55,8.39 -4.62,11.7 -3.05,3.32 -7.2,4.98 -12.42,4.98 -5.06,0 -9.13,-1.66 -12.2,-4.98 -3.05,-3.32 -4.57,-7.22 -4.57,-11.7 0,-4.54 1.53,-8.44 4.57,-11.7 3.07,-3.28 7.14,-4.93 12.2,-4.93 5.22,0 9.37,1.65 12.42,4.93 3.07,3.26 4.62,7.16 4.62,11.7zm-32.15 31.08c5.67,0 10.82,1.38 15.43,4.13 4.63,2.76 8.34,6.46 11.12,11.12 2.8,4.66 4.21,9.84 4.21,15.52l0 59.59c-5.68,0 -10.85,-1.37 -15.52,-4.13 -4.66,-2.75 -8.37,-6.46 -11.12,-11.12 -2.76,-4.66 -4.13,-9.83 -4.13,-15.52l0 -59.59zm0 0z"/>
  <path class="fil0" d="M511.16 237.13c0,7.53 -1.55,14.16 -4.62,19.86 -3.08,5.68 -7.53,10.11 -13.36,13.27 -5.83,3.17 -12.85,4.75 -21.03,4.75 -6.64,0 -13.04,-1.01 -19.19,-3.05 -6.13,-2.06 -11.6,-5.09 -16.41,-9.1 -4.82,-4.04 -8.63,-9.01 -11.43,-14.93 -2.78,-5.92 -4.17,-12.75 -4.17,-20.49 0,-7.44 1.32,-14.05 3.99,-19.82 2.66,-5.8 6.32,-10.67 10.99,-14.62 4.66,-3.97 9.92,-6.96 15.78,-8.97 5.89,-2 12.04,-3 18.47,-3 6.91,0 13.33,1.26 19.28,3.77 5.98,2.51 10.94,6.5 14.89,11.97 3.97,5.45 6.24,12.65 6.82,21.61l-1.52 0c-0.48,-5.98 -1.68,-11.01 -3.59,-15.11 -1.92,-4.09 -4.28,-7.42 -7.08,-10 -2.78,-2.57 -5.74,-4.44 -8.88,-5.61 -3.12,-1.17 -6.05,-1.75 -8.83,-1.75 -9.06,0 -15.95,3.62 -20.67,10.85 -4.7,7.21 -7.04,17.49 -7.04,30.85 0,8.02 1.22,15.02 3.68,21.03 2.48,6.01 5.98,10.67 10.49,13.99 4.54,3.32 9.84,4.98 15.92,4.98 8.36,0 14.8,-2.82 19.28,-8.48 4.48,-5.65 6.68,-12.98 6.59,-22.02l1.66 0zm0 0z"/>
  <path class="fil1" d="M142.63 133.99l50.67 0 0 1.93 -50.67 0c-6.34,0 -12.13,-1.55 -17.35,-4.66 -5.23,-3.11 -9.4,-7.24 -12.51,-12.42 -3.12,-5.2 -4.66,-10.96 -4.66,-17.31l0 -99.59 85.2 0 0 1.93 -50.67 0 0 63.14 45.02 0 0 1.93 -45.02 0 0 65.06zm0 0z"/>
  <path class="fil1" d="M269.61 0c5.92,0 11.3,1.44 16.14,4.31 4.84,2.87 8.7,6.71 11.57,11.52 2.87,4.79 4.3,10.13 4.3,16.05l0 104.03c-5.83,0 -11.2,-1.44 -16.1,-4.3 -4.88,-2.87 -8.74,-6.73 -11.61,-11.57 -2.87,-4.84 -4.3,-10.22 -4.3,-16.14l0 -0.72c-2.06,10.67 -6.09,18.81 -12.06,24.39 -5.99,5.56 -13.43,8.34 -22.33,8.34 -11.96,0 -21.46,-4.35 -28.47,-13.05 -7,-8.7 -10.49,-21.09 -10.49,-37.17 0,-10.49 1.57,-19.38 4.71,-26.68 3.16,-7.32 7.63,-12.93 13.41,-16.82 5.8,-3.91 12.6,-5.87 20.4,-5.87 8.61,0 15.87,2.58 21.79,7.71 5.92,5.15 10.07,12.6 12.47,22.38l0 -66.41 0.58 0zm-38.83 85.69c0,8.5 0.76,15.92 2.29,22.29 1.52,6.37 3.64,11.33 6.37,14.89 2.71,3.56 5.92,5.34 9.6,5.34 3.14,0 6.14,-1.49 9.01,-4.48 2.87,-3.02 5.29,-7.26 7.26,-12.73 1.97,-5.49 3.21,-11.95 3.72,-19.37l0 -11.88c-0.52,-7.2 -1.75,-13.46 -3.72,-18.79 -1.97,-5.35 -4.39,-9.51 -7.26,-12.47 -2.87,-2.96 -5.87,-4.44 -9.01,-4.44 -3.68,0 -6.88,1.74 -9.6,5.2 -2.72,3.44 -4.84,8.28 -6.37,14.53 -1.52,6.22 -2.29,13.53 -2.29,21.93zm0 0z"/>
  <path class="fil1" d="M376.42 38.25c5.83,0 11.13,1.41 15.92,4.21 4.81,2.81 8.62,6.63 11.43,11.43 2.8,4.79 4.22,10.09 4.22,15.92l0 66.1c-5.72,0 -10.97,-1.4 -15.78,-4.21 -4.79,-2.8 -8.61,-6.6 -11.48,-11.39 -2.87,-4.81 -4.31,-10.13 -4.31,-15.96l0 -2.96c-0.99,6.73 -2.81,12.71 -5.47,17.94 -2.67,5.24 -6.27,9.32 -10.81,12.24 -4.55,2.9 -10.22,4.35 -17.04,4.35 -10.2,0 -17.98,-3.11 -23.36,-9.33 -5.38,-6.21 -8.07,-14.42 -8.07,-24.62l0 -63.72 1.03 0c5.83,0 11.12,1.41 15.87,4.21 4.75,2.81 8.54,6.63 11.39,11.43 2.87,4.79 4.31,10.09 4.31,15.92l0 40.45c0,11.06 3.74,16.59 11.25,16.59 3.46,0 6.37,-1 8.7,-3 2.33,-2.03 4.23,-4.64 5.69,-7.85 1.49,-3.23 2.62,-6.69 3.41,-10.4 0.81,-3.7 1.34,-7.28 1.61,-10.72 0.29,-3.46 0.45,-6.38 0.45,-8.74l0 -47.89 1.03 0zm0 0z"/>
 </g>
</svg>
